<svg id="Outline" height="512" viewBox="0 0 512 512" width="512" xmlns="http://www.w3.org/2000/svg" fill="#f3d7b8"><path d="m420.049 269.656a48.056 48.056 0 0 0 -67.883 0l-5.657 5.657-10.909-10.913 44.545-34.646a64.058 64.058 0 1 0 -89.893-89.891l-34.652 44.542-11.4-11.405 33.418-42.966a80.058 80.058 0 1 1 124.744 100.346l12.3 10.228a96.057 96.057 0 1 0 -149.674-120.393l-32.188 41.385-11.4-11.4 30.961-39.808a112.06 112.06 0 0 1 167.688-10.44c41.628 41.628 43.9 108.828 5.172 152.989l12.029 10.549c44.269-50.477 41.683-127.282-5.888-174.853a128.057 128.057 0 0 0 -191.633 11.931l-34.993 44.991-67.177 67.177-25.059 19.493 9.822 12.629 19.878-15.458 11.977 11.977-5.656 5.656a32.035 32.035 0 0 1 -45.254 0l-22.629-22.633-11.315 11.316 22.628 22.628a48.056 48.056 0 0 0 67.883 0l5.657-5.657 10.914 10.913-44.545 34.647a64.058 64.058 0 0 0 39.327 114.622c1.323 0 2.653-.041 3.982-.124a64.076 64.076 0 0 0 46.583-24.6l34.648-44.545 11.4 11.4-33.418 42.967a80.058 80.058 0 1 1 -124.744-100.347l-12.3-10.228a96.057 96.057 0 0 0 73.862 157.478c1.982 0 3.973-.061 5.962-.185a96.1 96.1 0 0 0 69.855-36.9l32.183-41.385 11.4 11.4-30.961 39.808a112.061 112.061 0 0 1 -167.692 10.44c-41.628-41.628-43.9-108.83-5.172-152.99l-12.025-10.548c-44.269 50.477-41.683 127.282 5.888 174.853a128.116 128.116 0 0 0 90.554 37.507q3.966 0 7.954-.247a128.113 128.113 0 0 0 93.125-49.191l34.993-44.991 67.177-67.177 25.059-19.493-9.822-12.629-19.878 15.458-11.977-11.977 5.656-5.656a32.035 32.035 0 0 1 45.254 0l22.629 22.633 11.315-11.315zm-117.172-119.972a48.058 48.058 0 1 1 67.44 67.438l-46.124 35.878-11.4-11.4 47.7-37.1a32.057 32.057 0 1 0 -44.988-44.983l-37.1 47.7-11.4-11.4zm-13.071 68.926 38.331-49.28a16.057 16.057 0 1 1 22.535 22.531l-49.282 38.332zm-80.684 159.708a48.058 48.058 0 1 1 -67.438-67.442l46.122-35.876 11.4 11.4-47.7 37.1a32.057 32.057 0 0 0 19.684 57.363q.993 0 1.989-.061a32.071 32.071 0 0 0 23.312-12.314l37.1-47.7 11.4 11.4zm13.072-68.928-38.33 49.281a16.058 16.058 0 1 1 -22.534-22.535l49.28-38.33zm79.061 56.432-147.077-147.077 56.567-56.567 147.077 147.077z"/><path d="m50.01 205.089h16.001v16h-16.001z" transform="matrix(.707 -.707 .707 .707 -133.685 103.432)"/><path d="m445.989 306.912h16.001v16h-16.001z" transform="matrix(.707 -.707 .707 .707 -89.706 413.255)"/></svg>